<svg width="16" height="16" viewBox="0 0 16 16" fill="none" xmlns="http://www.w3.org/2000/svg">
<path d="M12.0429 0.804858L12.1351 0.990343L12.8346 2.84883C12.8891 2.99431 13.0043 3.1107 13.151 3.16525L14.9452 3.83809C15.7332 4.13389 16.1563 4.97525 15.9466 5.77174L15.8957 5.92934L15.0616 7.77571C15.0298 7.84621 15.0134 7.92266 15.0134 7.99999C15.0134 8.07732 15.0298 8.15377 15.0616 8.22427L15.8532 9.9688C16.0196 10.3347 16.0443 10.7493 15.9228 11.1325C15.8012 11.5156 15.5419 11.84 15.195 12.0431L15.0095 12.1352L13.151 12.8347C13.0789 12.8621 13.0134 12.9045 12.9589 12.959C12.9043 13.0135 12.862 13.079 12.8346 13.1511L12.1618 14.9454C12.0206 15.3221 11.7448 15.633 11.3876 15.818C11.0303 16.003 10.6172 16.0489 10.2281 15.9468L10.0705 15.8958L8.22418 15.0618C8.15368 15.03 8.07723 15.0135 7.9999 15.0135C7.92257 15.0135 7.84612 15.03 7.77562 15.0618L6.03111 15.8546C5.66505 16.0209 5.25034 16.0455 4.8672 15.9236C4.48406 15.8018 4.1597 15.5422 3.95685 15.1951L3.86472 15.0096L3.16521 13.1511C3.13784 13.079 3.09548 13.0135 3.04094 12.959C2.9864 12.9045 2.92091 12.8621 2.8488 12.8347L1.05458 12.1619C0.677887 12.0208 0.366948 11.7449 0.181961 11.3877C-0.00302499 11.0305 -0.0488998 10.6173 0.0532179 10.2282L0.104135 10.0706L0.939415 8.22427C0.971208 8.15377 0.987649 8.07732 0.987649 7.99999C0.987649 7.92266 0.971208 7.84621 0.939415 7.77571L0.146566 6.03118C-0.0197738 5.66525 -0.0445435 5.25065 0.0770447 4.86752C0.198633 4.48439 0.457944 4.15994 0.804849 3.9569L0.990332 3.86476L2.8488 3.16525C2.92091 3.13787 2.9864 3.09552 3.04094 3.04098C3.09548 2.98643 3.13784 2.92095 3.16521 2.84883L3.83804 1.0546C3.97917 0.677895 4.25504 0.366952 4.61224 0.181963C4.96945 -0.00302502 5.38259 -0.0489004 5.77168 0.0532185L5.92928 0.104136L7.77562 0.939426C7.84612 0.971219 7.92257 0.98766 7.9999 0.98766C8.07723 0.98766 8.15368 0.971219 8.22418 0.939426L9.96869 0.146567C10.3346 -0.019774 10.7492 -0.044544 11.1323 0.0770455C11.5155 0.198635 11.8399 0.457949 12.0429 0.804858ZM10.6233 5.21771L6.76092 9.6342L5.35222 8.22306C5.30232 8.17091 5.24252 8.12926 5.17631 8.10055C5.1101 8.07183 5.03882 8.05663 4.96666 8.05583C4.89449 8.05504 4.8229 8.06867 4.75607 8.09592C4.68924 8.12317 4.62853 8.16349 4.5775 8.21452C4.52647 8.26555 4.48615 8.32626 4.4589 8.39309C4.43165 8.45992 4.41802 8.53151 4.41882 8.60368C4.41961 8.67584 4.43481 8.74712 4.46353 8.81333C4.49224 8.87954 4.5339 8.93935 4.58604 8.98925L6.4045 10.8077C6.45698 10.8601 6.51965 10.9011 6.58862 10.9283C6.65759 10.9555 6.73141 10.9682 6.80549 10.9657C6.87958 10.9632 6.95237 10.9455 7.01935 10.9137C7.08634 10.882 7.14609 10.8368 7.19493 10.7811L11.438 5.93177C11.5244 5.8227 11.5655 5.68459 11.5529 5.54602C11.5402 5.40746 11.4748 5.27907 11.3701 5.18745C11.2654 5.09582 11.1294 5.04799 10.9904 5.05385C10.8514 5.05971 10.72 5.1176 10.6233 5.21771Z" fill="#9747FF"/>
</svg>
