<svg width="16" height="16" viewBox="0 0 16 16" fill="none" xmlns="http://www.w3.org/2000/svg">
<g clip-path="url(#clip0_18_4)">
<path d="M15.8949 4.64969C15.8949 3.24344 14.8606 2.11219 13.5824 2.11219C11.8512 2.03125 10.0856 2 8.2812 2H7.7187C5.9187 2 4.14995 2.03125 2.4187 2.1125C1.1437 2.1125 0.109321 3.25 0.109321 4.65625C0.0311959 5.76844 -0.00192911 6.88094 -5.41069e-05 7.99344C-0.00317911 9.10594 0.0322376 10.2195 0.106196 11.3341C0.106196 12.7403 1.14057 13.8809 2.41557 13.8809C4.23432 13.9653 6.09995 14.0028 7.99682 13.9997C9.89682 14.0059 11.7572 13.9664 13.5781 13.8809C14.8562 13.8809 15.8906 12.7403 15.8906 11.3341C15.9656 10.2184 15.9999 9.10594 15.9968 7.99031C16.0039 6.87781 15.9699 5.76427 15.8949 4.64969ZM6.4687 11.0591V4.91844L10.9999 7.98719L6.4687 11.0591Z" fill="white"/>
</g>
<defs>
<clipPath id="clip0_18_4">
<rect width="16" height="16" fill="white"/>
</clipPath>
</defs>
</svg>
